<svg width="20" height="20" viewBox="0 0 20 20" fill="none" xmlns="http://www.w3.org/2000/svg">
<path d="M13.5446 0.650148C13.1281 0.233851 12.5632 0 11.9743 0C11.3854 0 10.8206 0.233851 10.404 0.650148L0.650641 10.4045C0.444363 10.6108 0.280734 10.8557 0.169096 11.1252C0.057459 11.3947 0 11.6836 0 11.9753C0 12.267 0.057459 12.5559 0.169096 12.8254C0.280734 13.0949 0.444363 13.3398 0.650641 13.5461L1.80774 14.7022C2.31126 15.2067 3.01914 15.1169 3.44664 14.8621C3.68245 14.7221 3.95819 14.6646 4.23032 14.6988C4.50244 14.7329 4.75544 14.8567 4.94936 15.0506C5.14329 15.2446 5.2671 15.4976 5.30123 15.7697C5.33536 16.0418 5.27788 16.3175 5.13786 16.5534C4.88413 16.9809 4.7933 17.6887 5.2978 18.1923L6.45589 19.3494C6.66216 19.5556 6.90705 19.7193 7.17656 19.8309C7.44608 19.9425 7.73494 20 8.02666 20C8.31838 20 8.60725 19.9425 8.87676 19.8309C9.14627 19.7193 9.39116 19.5556 9.59744 19.3494L19.3499 9.59694C19.5561 9.39067 19.7198 9.14578 19.8314 8.87627C19.943 8.60675 20.0005 8.31789 20.0005 8.02617C20.0005 7.73445 19.943 7.44558 19.8314 7.17607C19.7198 6.90656 19.5561 6.66167 19.3499 6.45539L18.1937 5.29829C17.6902 4.79478 16.9814 4.88363 16.5539 5.13835C16.318 5.27838 16.0423 5.33586 15.7702 5.30172C15.4981 5.26759 15.2451 5.14378 15.0511 4.94986C14.8572 4.75593 14.7334 4.50293 14.6993 4.23081C14.6651 3.95869 14.7226 3.68295 14.8626 3.44713C15.1174 3.01964 15.2072 2.31175 14.7027 1.80824L13.5456 0.650148H13.5446Z" fill="#F2C94C"/>
</svg>
